# xmcd
#
# Track frame offsets:
#	150
#	27236
#	43118
#
# Disc length: 790 seconds
#
# Revision: 0
# Processed by: cddbd v1.5.1PL2 Copyright (c) Steve Scherf et al.
# Submitted via: audiograbber 1.83.01
#
DISCID=1e031403
DTITLE=Anja Regitz - DJ Promotion Single aus dem Album "Jetzt erst recht"
DYEAR=2006
DGENRE=Schlager
TTITLE0=Warum (DJ Super Maxi Mix)
TTITLE1=Liebeskummer lohnt sich nicht (Radio Mix)
TTITLE2=Liebeskummer lohnt sich nicht (Party Mix)
EXTD=DJ Promo
EXTT0=
EXTT1=
EXTT2=
PLAYORDER=
